<svg xmlns="http://www.w3.org/2000/svg" width="670" height="589" fill="none" viewBox="0 0 670 589"><path fill="url(#paint0_linear_112_17)" fill-rule="evenodd" d="M174.06 132.27H309.685V133.965C307.21 136.583 306.607 140.1 304.599 143.289C298.422 153.105 288.561 162.251 276.627 166.176C269.186 168.623 259.08 167.871 249.502 167.871C224.773 167.871 195.185 165.339 177.451 172.957C151.964 183.905 143.778 205.428 129.982 228.055C120.605 243.436 110.232 259.187 102.009 275.523L100.314 274.676C96.7277 267.361 86.5169 257.992 90.1423 245.008C93.338 233.564 101.631 222.486 106.248 211.949C116.02 189.647 125.006 159.564 143.545 145.832C149.05 141.741 155.026 138.326 161.345 135.66C165.347 134.039 170.513 132.652 174.06 132.27ZM333.42 132.27H386.822V133.117C382.013 140.652 377.498 150.244 372.412 158.547C361.392 176.534 350.368 195.617 339.353 213.645C330.564 228.03 325.102 241.594 308.838 248.398C291.452 255.671 244.259 251.789 219.834 251.789H197.795C182.1 255.227 170.424 259.88 159.65 267.895C149.276 275.608 144.521 288.776 137.611 300.105C127.798 316.194 117.756 333.198 107.943 349.27C103.002 357.362 99.9149 369.776 92.6853 375.547L92.2907 376C91.4431 375.152 91.8478 375.56 91.8376 375.547C87.6502 371.382 79.9425 359.971 82.5134 350.117C84.2375 343.505 88.6818 338.286 91.8376 333.164C99.6318 320.516 106.314 307.311 113.877 295.02C127.318 273.181 138.861 250.406 152.021 228.902C161.132 214.016 166.715 198.82 183.384 191.605C199.86 184.475 228.697 187.367 251.197 187.367H271.541C305.871 179.212 317.836 158.727 333.42 132.27ZM400.385 147.527L401.513 145.152C403.717 152.726 414.688 161.976 411.404 173.805C407.759 186.926 395.432 202.406 388.517 213.645C371.819 240.786 357.479 269.098 341.049 295.867C331.189 311.931 325.621 325.738 307.142 333.164C299.235 336.341 288.279 335.707 277.474 335.707C252.75 335.707 222.959 333.197 205.424 340.793C192.494 346.393 180.36 357.278 173.213 368.766C169.871 374.136 165.005 388.528 159.65 390.805C156.693 392.664 148.871 391.652 144.392 391.652L108.013 390L107.095 389.957C114.513 383.5 117.967 370.56 123.201 361.984C133.013 345.909 143.036 328.859 152.869 312.82C160.583 300.239 165.273 286.861 177.451 278.914C197.517 265.82 244.005 271.285 275.779 271.285C284.971 271.285 295.844 272.518 303.752 270.438C346.436 259.211 357.114 219.832 377.498 186.52C384.422 175.203 396.205 160.321 400.385 147.527ZM184.232 391.652C187.165 373.551 207.938 359.346 225.767 355.203H254.588C282.51 355.203 308.838 356.341 325.791 345.879C349.493 331.25 362.149 299.258 376.65 275.523C380.193 269.724 387.782 250.085 393.603 248.398C396.423 256.76 407.505 264.517 403.775 278.066C399.876 292.231 390.026 305.67 384.279 318.754C370.552 350.006 360.504 379.589 325.791 389.957C313 393.777 293.758 391.652 278.322 391.652H184.232Z" clip-rule="evenodd"/><defs><linearGradient id="paint0_linear_112_17" x1="224.5" x2="336.5" y1="114.5" y2="385" gradientUnits="userSpaceOnUse"><stop stop-color="#6836C9" stop-opacity=".91"/><stop offset=".245" stop-color="#A770E2"/><stop offset=".505" stop-color="#E6A9FA"/><stop offset=".724" stop-color="#E6A9FA"/><stop offset="1" stop-color="#FF99D7"/></linearGradient></defs></svg>